# xmcd CD database file
#
# Track frame offsets:
#	150
#	19175
#	41707
#	61106
#	79898
#	104652
#	124371
#
# Disc length: 2007 seconds
#
# Revision: 5
# Processed by: cddbd v1.5.2PL0 Copyright (c) Steve Scherf et al.
# Submitted via: CDex 1.51
#
DISCID=5d07d507
DTITLE=B.B. KING - Midnight Believer
DYEAR=1978
DGENRE=Blues
TTITLE0=When It All Comes Down(I'll Still Be Around)
TTITLE1=Midnight Believer
TTITLE2=I Just Can't Leave Your Love Alone
TTITLE3=Hold On(I Feel Our Love Is Changing)
TTITLE4=Never Make A Move Too Soon
TTITLE5=A World Full Of Strangers
TTITLE6=Let Me Make You Cry A Little Longer
EXTD=YEAR: 1978
EXTT0=
EXTT1=
EXTT2=
EXTT3=
EXTT4=
EXTT5=
EXTT6=
PLAYORDER=
